# xmcd CD database file
#
# Track frame offsets:
#	150
#	19059
#	33280
#	45099
#	58821
#	72221
#	81771
#	95307
#	112658
#	121708
#	136585
#	149611
#
# Disc length: 2161 seconds
#
# Revision: 0
# Processed by: cddbd v1.5.1PL0 Copyright (c) Steve Scherf et al.
# Submitted via: CDex 1.51
#
DISCID=8d086f0c
DTITLE=100 Folk Celsius - Boldog születésnapot!
DYEAR=2004
DGENRE=Country
TTITLE0=Boldog Születésnapot!
TTITLE1=Csokitorta
TTITLE2=Kakaóbetyár
TTITLE3=Minden évben egyszer
TTITLE4=Hány gyertya ég?
TTITLE5=Szülinapom van, hát tudja meg a világ
TTITLE6=Szülinapi buli
TTITLE7=Barát dal
TTITLE8=Szülinapi tánc
TTITLE9=Ajándék
TTITLE10=Minden nap születésnap
TTITLE11=A mama dala
EXTD=YEAR: 2004
EXTT0=
EXTT1=
EXTT2=
EXTT3=
EXTT4=
EXTT5=
EXTT6=
EXTT7=
EXTT8=
EXTT9=
EXTT10=
EXTT11=
PLAYORDER=
